<svg xmlns="http://www.w3.org/2000/svg" viewBox="0 0 1024 1024" role="img" aria-labelledby="title desc">
  <title id="title">Vacay Trip Planner app icon</title>
  <desc id="desc">A location pin and airplane over a pastel travel landscape.</desc>
  <defs>
    <linearGradient id="bg" x1="90" y1="55" x2="930" y2="965" gradientUnits="userSpaceOnUse">
      <stop stop-color="#fff9fb"/>
      <stop offset=".52" stop-color="#dff4ff"/>
      <stop offset="1" stop-color="#fbdde6"/>
    </linearGradient>
    <linearGradient id="pin" x1="350" y1="260" x2="692" y2="750" gradientUnits="userSpaceOnUse">
      <stop stop-color="#ef8fa7"/>
      <stop offset="1" stop-color="#c85375"/>
    </linearGradient>
    <filter id="shadow" x="-30%" y="-30%" width="160%" height="170%">
      <feDropShadow dx="0" dy="26" stdDeviation="28" flood-color="#6b9bb2" flood-opacity=".2"/>
    </filter>
  </defs>
  <rect width="1024" height="1024" rx="225" fill="url(#bg)"/>
  <circle cx="196" cy="217" r="74" fill="#fff" opacity=".68"/>
  <circle cx="827" cy="230" r="114" fill="#fff" opacity=".55"/>
  <path d="M0 739c165-113 324-135 478-65 158 72 340 69 546-28v378H0Z" fill="#c9ecf7"/>
  <path d="M0 830c211-121 421-120 630 2 110 64 242 68 394 12v180H0Z" fill="#a8ddea"/>
  <g filter="url(#shadow)">
    <path d="M512 146c-192 0-348 153-348 342 0 239 285 463 320 490a46 46 0 0 0 56 0c35-27 320-251 320-490 0-189-156-342-348-342Z" fill="url(#pin)"/>
    <circle cx="512" cy="481" r="202" fill="#fff"/>
  </g>
  <path d="m364 512 121-35 95-131c10-14 30-19 45-10 15 8 22 26 16 42l-45 118 93 51c15 8 23 25 19 42-4 17-19 29-36 29l-117-2-74 96c-9 12-25 17-39 12-14-5-23-18-23-33l5-109-80-21c-14-4-24-16-24-30 0-9 4-15 14-19Z" fill="#4a839e"/>
  <path d="m485 477 70 139-48 72-22-211Z" fill="#326b88" opacity=".72"/>
  <g fill="#fff" opacity=".82">
    <circle cx="275" cy="177" r="18"/>
    <circle cx="780" cy="160" r="13"/>
    <circle cx="848" cy="354" r="22"/>
  </g>
</svg>
